HIERARCHY
ROOT Hips
{
 OFFSET 0.000000 0.000000 0.000000
 CHANNELS 6 Xposition Yposition Zposition Yrotation Xrotation Zrotation
 JOINT Chest
 {
  OFFSET 0.000000 9.585900 0.002600
  CHANNELS 3 Yrotation Xrotation Zrotation
  JOINT Chest2
  {
   OFFSET 0.000000 9.601200 -0.005300
   CHANNELS 3 Yrotation Xrotation Zrotation
   JOINT Chest3
   {
    OFFSET 0.000000 9.561800 0.000000
    CHANNELS 3 Yrotation Xrotation Zrotation
    JOINT Chest4
    {
     OFFSET 0.000000 9.552100 0.000000
     CHANNELS 3 Yrotation Xrotation Zrotation
     JOINT Neck
     {
      OFFSET 0.000000 14.453000 0.000000
      CHANNELS 3 Yrotation Xrotation Zrotation
      JOINT Head
      {
       OFFSET 0.000000 8.936500 -0.011300
       CHANNELS 3 Yrotation Xrotation Zrotation
       End Site
       {
        OFFSET 0.000000 17.073600 -0.006000
       }
      }
     }
     JOINT RightCollar
     {
      OFFSET -2.921100 9.558500 0.000000
      CHANNELS 3 Yrotation Xrotation Zrotation
      JOINT RightShoulder
      {
       OFFSET -13.519700 0.000000 0.000000
       CHANNELS 3 Yrotation Xrotation Zrotation
       JOINT RightElbow
       {
        OFFSET 0.000000 -29.696600 0.000000
        CHANNELS 3 Yrotation Xrotation Zrotation
        JOINT RightWrist
        {
         OFFSET 0.000000 -24.004700 0.000000
         CHANNELS 3 Yrotation Xrotation Zrotation
         End Site
         {
          OFFSET 0.000000 -17.728500 0.000000
         }
        }
       }
      }
     }
     JOINT LeftCollar
     {
      OFFSET 2.921100 9.558500 0.000000
      CHANNELS 3 Yrotation Xrotation Zrotation
      JOINT LeftShoulder
      {
       OFFSET 13.519700 0.000000 0.000000
       CHANNELS 3 Yrotation Xrotation Zrotation
       JOINT LeftElbow
       {
        OFFSET 0.000000 -29.696600 0.000000
        CHANNELS 3 Yrotation Xrotation Zrotation
        JOINT LeftWrist
        {
         OFFSET 0.000000 -24.004700 0.000000
         CHANNELS 3 Yrotation Xrotation Zrotation
         End Site
         {
          OFFSET 0.000000 -17.728500 0.000000
         }
        }
       }
      }
     }
    }
   }
  }
 }
 JOINT RightHip
 {
  OFFSET -7.771700 -0.012900 -0.001300
  CHANNELS 3 Yrotation Xrotation Zrotation
  JOINT RightKnee
  {
   OFFSET 0.000000 -40.869800 0.001200
   CHANNELS 3 Yrotation Xrotation Zrotation
   JOINT RightAnkle
   {
    OFFSET 0.000000 -39.717900 0.002100
    CHANNELS 3 Yrotation Xrotation Zrotation
    JOINT RightToe
    {
     OFFSET 0.000000 -4.965400 11.033500
     CHANNELS 3 Yrotation Xrotation Zrotation
     End Site
     {
      OFFSET 0.000000 -1.423100 5.872300
     }
    }
   }
  }
 }
 JOINT LeftHip
 {
  OFFSET 7.771700 -0.012900 -0.001300
  CHANNELS 3 Yrotation Xrotation Zrotation
  JOINT LeftKnee
  {
   OFFSET 0.000000 -40.869800 0.001200
   CHANNELS 3 Yrotation Xrotation Zrotation
   JOINT LeftAnkle
   {
    OFFSET 0.000000 -39.717900 0.002100
    CHANNELS 3 Yrotation Xrotation Zrotation
    JOINT LeftToe
    {
     OFFSET 0.000000 -4.965400 11.033500
     CHANNELS 3 Yrotation Xrotation Zrotation
     End Site
     {
      OFFSET 0.000000 -1.423100 5.872300
     }
    }
   }
  }
 }
}
MOTION
Frames: 11
Frame Time: 0.008333
-275.544464 60.475148 -83.275363 157.528993 -32.917502 2.491235 4.357168 16.488390 2.224589 0.397148 1.713310 0.187299 0.665613 2.856213 0.319186 3.608741 14.448383 2.001358 0.497676 20.388310 0.906215 0.322753 -4.103499 0.850379 1.998106 -0.078961 -4.732813 6.527467 -9.471789 -8.987620 39.805523 -56.888162 -21.472372 7.060569 4.662741 -26.725074 -8.873708 -4.732243 -2.340222 -9.690415 -10.111671 18.264187 -62.325768 -46.151292 36.488322 -8.987370 5.734147 12.346762 -1.482635 -36.201531 5.173551 -21.567400 67.297039 -18.752668 -0.265796 -2.529409 -3.677594 0.417625 -0.124508 0.169301 14.697326 -36.603155 1.636100 23.382977 61.369625 21.829468 -15.579697 -13.886006 3.960499 -0.492901 0.259786 -0.171819
-275.549531 60.476437 -83.245403 157.484874 -33.064628 2.492533 4.369002 16.466334 2.237701 0.395488 1.706815 0.187770 0.663034 2.845835 0.319964 3.602480 14.424390 2.007581 0.464251 20.412591 0.963805 0.274202 -4.075269 0.919411 1.988160 0.080329 -4.659564 6.530224 -9.478778 -8.667698 39.517813 -56.738989 -21.584881 6.954353 4.467071 -26.827525 -8.942614 -4.586710 -2.434193 -9.689926 -10.389265 18.170384 -62.099854 -45.810823 36.311511 -9.081000 5.834060 12.212777 -1.566291 -36.050520 5.270691 -21.475691 67.250004 -18.739492 -0.265314 -2.471976 -3.677309 0.414633 -0.136659 0.165735 14.717788 -36.442810 1.689673 23.372524 61.302290 21.825245 -15.602151 -13.897007 3.955324 -0.461753 0.275519 -0.167462
-275.554898 60.476587 -83.214331 157.442032 -33.196882 2.498940 4.375729 16.437710 2.243686 0.393896 1.701110 0.188215 0.660414 2.836732 0.320646 3.595501 14.403460 2.013075 0.423803 20.434324 1.019287 0.218582 -4.049943 0.987811 1.980222 0.219115 -4.596036 6.521362 -9.499266 -8.365345 39.176369 -56.583296 -21.607121 6.864284 4.278043 -26.897326 -9.006521 -4.465285 -2.523027 -9.693211 -10.656275 18.052033 -61.883901 -45.437931 36.161159 -9.182663 5.932472 12.069926 -1.711588 -35.915178 5.417322 -21.361312 67.201649 -18.765757 -0.297299 -2.405578 -3.686054 0.438756 -0.157255 0.176412 14.722978 -36.310632 1.745344 23.380453 61.257128 21.833593 -15.676304 -13.879137 3.942176 -0.481512 0.262386 -0.169026
-275.559625 60.477650 -83.185463 157.369266 -33.338233 2.533132 4.402688 16.431346 2.238214 0.392434 1.695923 0.188684 0.658003 2.828469 0.321368 3.588921 14.384518 2.018339 0.374281 20.457187 1.072224 0.153876 -4.023115 1.055603 1.966541 0.336758 -4.544132 6.502615 -9.535398 -8.080797 38.809668 -56.422782 -21.555022 6.793787 4.093840 -26.939489 -9.070462 -4.370644 -2.605557 -9.695642 -10.911030 17.909358 -61.676562 -45.033023 36.032996 -9.292590 6.027087 11.919342 -1.720357 -35.773571 5.481526 -21.300568 67.154725 -18.759987 -0.367441 -2.345106 -3.707038 0.496169 -0.172847 0.196130 14.771638 -36.159509 1.778191 23.393681 61.193398 21.858922 -15.707182 -13.866121 3.938273 -0.537100 0.261278 -0.194439
-275.562620 60.477081 -83.154712 157.351944 -33.468055 2.534805 4.384278 16.420357 2.233136 0.391126 1.691663 0.189267 0.655923 2.821612 0.322287 3.582981 14.368795 2.024220 0.314235 20.484285 1.121785 0.078793 -3.991337 1.122229 1.942039 0.432235 -4.503952 6.478173 -9.587575 -7.815644 38.434741 -56.257503 -21.441663 6.743949 3.910442 -26.953510 -9.134750 -4.300623 -2.680401 -9.700051 -11.154056 17.742607 -61.474414 -44.599039 35.922723 -9.409651 6.116279 11.761420 -1.760702 -35.648511 5.546078 -21.280495 67.116334 -18.784488 -0.392900 -2.300996 -3.712457 0.510557 -0.179301 0.200683 14.783577 -36.022474 1.805872 23.412199 61.120161 21.896326 -15.794014 -13.841781 3.919357 -0.483286 0.272538 -0.180001
-275.558401 60.477063 -83.124054 157.379808 -33.614117 2.484371 4.337545 16.423536 2.258514 0.390107 1.688813 0.190116 0.654313 2.816967 0.323755 3.578332 14.357936 2.032472 0.242276 20.517997 1.166472 -0.007895 -3.952009 1.186470 1.910038 0.508106 -4.477496 6.447288 -9.653168 -7.572988 38.055502 -56.089773 -21.274394 6.714404 3.727355 -26.936346 -9.200020 -4.245726 -2.747889 -9.711437 -11.387944 17.554694 -61.277137 -44.143806 35.826196 -9.524131 6.208176 11.603686 -1.841927 -35.511004 5.638192 -21.319737 67.093341 -18.855657 -0.347876 -2.278813 -3.689477 0.467259 -0.184795 0.186045 14.723214 -35.886396 1.871985 23.440881 61.065547 21.938457 -15.830377 -13.811070 3.901600 -0.420171 0.266651 -0.163583
-275.556294 60.476040 -83.094251 157.318804 -33.753058 2.508883 4.357378 16.420534 2.258033 0.389430 1.687449 0.191234 0.653238 2.814753 0.325673 3.575100 14.352453 2.042552 0.159560 20.559249 1.206383 -0.105042 -3.903922 1.248086 1.875442 0.568155 -4.465003 6.415658 -9.727044 -7.356733 37.678440 -55.921188 -21.063650 6.702018 3.547744 -26.895345 -9.264828 -4.199021 -2.806425 -9.726471 -11.613496 17.346739 -61.090381 -43.672458 35.744274 -9.629413 6.305243 11.449430 -1.813888 -35.381309 5.692328 -21.314089 67.049711 -18.874901 -0.429202 -2.201349 -3.709398 0.528982 -0.219549 0.212985 14.744339 -35.753316 1.920611 23.438277 61.022519 21.957794 -15.887108 -13.778846 3.881819 -0.433743 0.239196 -0.177950
-275.549537 60.471242 -83.058792 157.308222 -33.864406 2.477575 4.341194 16.383456 2.283998 0.388840 1.687322 0.192509 0.652274 2.814536 0.327716 3.571218 14.351657 2.052947 0.068913 20.607311 1.241126 -0.209559 -3.847786 1.306064 1.844684 0.611657 -4.465388 6.389568 -9.804563 -7.170884 37.310115 -55.749307 -20.822776 6.700380 3.375679 -26.836951 -9.325419 -4.165642 -2.852962 -9.738351 -11.825107 17.116302 -60.916044 -43.189030 35.678189 -9.731059 6.403466 11.293638 -1.836332 -35.275649 5.760240 -21.283606 67.006566 -18.850618 -0.374593 -2.156654 -3.684572 0.459475 -0.212728 0.183543 14.693066 -35.656925 1.992579 23.434256 60.987348 21.966961 -15.921915 -13.740407 3.866925 -0.402291 0.222545 -0.178448
-275.539745 60.463433 -83.019289 157.225118 -33.950550 2.469458 4.389529 16.327541 2.324743 0.387891 1.687574 0.193918 0.650695 2.814909 0.329989 3.564118 14.352645 2.064126 -0.028424 20.661226 1.270454 -0.320053 -3.784795 1.359975 1.821703 0.637124 -4.475300 6.373665 -9.885146 -7.021145 36.949962 -55.570189 -20.557052 6.699973 3.215308 -26.761806 -9.380226 -4.151754 -2.889792 -9.750537 -12.017600 16.867429 -60.745687 -42.703248 35.622117 -9.836613 6.507792 11.135539 -1.806307 -35.191139 5.849643 -21.182035 66.933625 -18.754932 -0.389172 -2.054316 -3.683708 0.436020 -0.230429 0.175393 14.683771 -35.587631 2.082409 23.421019 60.958910 21.963190 -15.887893 -13.722309 3.854439 -0.386929 0.224176 -0.186940
-275.530480 60.461244 -82.990063 157.212348 -34.103424 2.455192 4.368739 16.347035 2.333164 0.401505 1.751836 0.204293 0.633204 2.750960 0.323159 3.553639 14.353664 2.075394 -0.132164 20.720736 1.296875 -0.436680 -3.715266 1.412263 1.802918 0.644337 -4.487988 6.376423 -9.967520 -6.912508 36.593724 -55.386441 -20.265897 6.694083 3.071140 -26.672951 -9.428538 -4.157724 -2.919340 -9.768479 -12.189168 16.608566 -60.576152 -42.225086 35.573231 -9.941531 6.621527 10.978517 -1.803069 -35.051067 5.908089 -21.258807 66.903811 -18.832037 -0.400603 -2.014158 -3.682619 0.440174 -0.243889 0.177222 14.615251 -35.447607 2.154758 23.405632 60.934495 21.954578 -15.845534 -13.697902 3.832122 -0.366466 0.222635 -0.186715
-275.520617 60.458859 -82.961184 157.201994 -34.256638 2.440635 4.345007 16.372397 2.337335 0.393505 1.719543 0.202107 0.637260 2.784488 0.329077 3.541519 14.356351 2.085393 -0.242388 20.786287 1.322486 -0.560070 -3.638545 1.465155 1.788151 0.632889 -4.498631 6.397970 -10.047644 -6.846348 36.231308 -55.204837 -19.941256 6.680942 2.943805 -26.576703 -9.472031 -4.182122 -2.942924 -9.787287 -12.339754 16.345679 -60.410484 -41.759034 35.529021 -10.036592 6.736668 10.829615 -1.803288 -34.908893 5.966836 -21.336476 66.871823 -18.910627 -0.413075 -1.975798 -3.685136 0.446359 -0.254974 0.181521 14.548615 -35.306128 2.226953 23.360274 60.913976 21.928265 -15.838555 -13.681631 3.816659 -0.354796 0.222364 -0.193120
